<?xml version="1.0" encoding="UTF-8" standalone="no"?>
<!-- Created with Inkscape (http://www.inkscape.org/) -->

<svg
   width="1in"
   height="1in"
   viewBox="0 0 72 72"
   version="1.1"
   id="svg5"
   inkscape:version="1.1.1 (3bf5ae0d25, 2021-09-20)"
   sodipodi:docname="1-2.svg"
   inkscape:export-filename="C:\Users\Rev\Desktop\logo.png"
   inkscape:export-xdpi="600"
   inkscape:export-ydpi="600"
   xmlns:inkscape="http://www.inkscape.org/namespaces/inkscape"
   xmlns:sodipodi="http://sodipodi.sourceforge.net/DTD/sodipodi-0.dtd"
   xmlns="http://www.w3.org/2000/svg"
   xmlns:svg="http://www.w3.org/2000/svg">
  <sodipodi:namedview
     id="namedview7"
     pagecolor="#ffffff"
     bordercolor="#111111"
     borderopacity="1"
     inkscape:pageshadow="0"
     inkscape:pageopacity="0"
     inkscape:pagecheckerboard="1"
     inkscape:document-units="in"
     showgrid="false"
     units="in"
     scale-x="25.4"
     showguides="true"
     inkscape:guide-bbox="true"
     inkscape:lockguides="false"
     inkscape:zoom="5.6568542"
     inkscape:cx="33.67596"
     inkscape:cy="30.670757"
     inkscape:window-width="1920"
     inkscape:window-height="1017"
     inkscape:window-x="-8"
     inkscape:window-y="32"
     inkscape:window-maximized="1"
     inkscape:current-layer="layer2">
    <sodipodi:guide
       position="36,36"
       orientation="0,1"
       id="guide600"
       inkscape:label=""
       inkscape:locked="false"
       inkscape:color="rgb(0,0,255)" />
    <sodipodi:guide
       position="36,36"
       orientation="-1,0"
       id="guide682"
       inkscape:locked="false"
       inkscape:label=""
       inkscape:color="rgb(0,0,255)" />
    <sodipodi:guide
       position="28,36"
       orientation="-1,0"
       id="guide1035"
       inkscape:label=""
       inkscape:locked="false"
       inkscape:color="rgb(0,0,255)" />
    <sodipodi:guide
       position="44,36"
       orientation="-1,0"
       id="guide1037"
       inkscape:label=""
       inkscape:locked="false"
       inkscape:color="rgb(0,0,255)" />
    <sodipodi:guide
       position="36,44"
       orientation="0,1"
       id="guide1173"
       inkscape:label=""
       inkscape:locked="false"
       inkscape:color="rgb(0,0,255)" />
    <sodipodi:guide
       position="36,28"
       orientation="0,1"
       id="guide1175"
       inkscape:label=""
       inkscape:locked="false"
       inkscape:color="rgb(0,0,255)" />
    <sodipodi:guide
       position="0,36"
       orientation="-1,0"
       id="guide1521"
       inkscape:label=""
       inkscape:locked="false"
       inkscape:color="rgb(0,0,255)" />
    <sodipodi:guide
       position="72,36"
       orientation="-1,0"
       id="guide1541"
       inkscape:label=""
       inkscape:locked="false"
       inkscape:color="rgb(0,0,255)" />
    <sodipodi:guide
       position="36,72"
       orientation="0,1"
       id="guide1543"
       inkscape:label=""
       inkscape:locked="false"
       inkscape:color="rgb(0,0,255)" />
    <sodipodi:guide
       position="36,0"
       orientation="0,1"
       id="guide1617"
       inkscape:label=""
       inkscape:locked="false"
       inkscape:color="rgb(0,0,255)" />
    <sodipodi:guide
       position="39.313708,36"
       orientation="-1,0"
       id="guide2392"
       inkscape:label=""
       inkscape:locked="true"
       inkscape:color="rgb(0,0,255)" />
    <sodipodi:guide
       position="36,32.686292"
       orientation="0,1"
       id="guide2394"
       inkscape:label=""
       inkscape:locked="true"
       inkscape:color="rgb(0,0,255)" />
    <sodipodi:guide
       position="36,39.313708"
       orientation="0,1"
       id="guide2396"
       inkscape:label=""
       inkscape:locked="true"
       inkscape:color="rgb(0,0,255)" />
    <sodipodi:guide
       position="32.686292,36"
       orientation="-1,0"
       id="guide2826"
       inkscape:label=""
       inkscape:locked="true"
       inkscape:color="rgb(0,0,255)" />
    <sodipodi:guide
       position="54,36"
       orientation="-1,0"
       id="guide4688"
       inkscape:label=""
       inkscape:locked="false"
       inkscape:color="rgb(0,0,255)" />
    <sodipodi:guide
       position="18,36"
       orientation="-1,0"
       id="guide4708"
       inkscape:label=""
       inkscape:locked="false"
       inkscape:color="rgb(0,0,255)" />
  </sodipodi:namedview>
  <defs
     id="defs2" />
  <g
     inkscape:groupmode="layer"
     id="layer3"
     inkscape:label="Halo A Back"
     style="display:inline">
    <path
       id="path3667"
       style="fill:#bc8000;stroke-width:1.36101"
       d="M 28.301364,28.301413 A 10.88815,48.996672 45.000232 0 0 1.3539997,70.645752 L 18.677004,53.322876 A 4.5100182,24.498336 45.000225 0 1 32.811153,32.811169 4.5100182,24.498336 45.000225 0 1 53.32301,18.677123 L 70.646013,1.3542473 A 10.88815,48.996672 45.000232 0 0 28.301364,28.301413 Z" />
  </g>
  <g
     inkscape:label="Nucleus Back"
     inkscape:groupmode="layer"
     id="layer1"
     style="display:inline">
    <path
       style="fill:#940000"
       id="path2896"
       sodipodi:type="arc"
       sodipodi:cx="10.887961"
       sodipodi:cy="40.02354"
       sodipodi:rx="15.398167"
       sodipodi:ry="15.398167"
       sodipodi:start="5.4977871"
       sodipodi:end="2.443461"
       sodipodi:arc-type="slice"
       d="m 21.776109,29.135392 a 15.398167,15.398167 0 0 1 3.863135,15.304392 15.398167,15.398167 0 0 1 -11.637503,10.663807 15.398167,15.398167 0 0 1 -14.90946008,-5.1823 L 10.887961,40.02354 Z"
       transform="matrix(0.70710938,-0.70710419,0.70710938,0.70710419,0,0)" />
    <path
       style="fill:#940000"
       id="path3194"
       sodipodi:type="arc"
       sodipodi:cx="-10.888336"
       sodipodi:cy="61.79985"
       sodipodi:rx="15.398167"
       sodipodi:ry="15.398167"
       sodipodi:start="2.3561945"
       sodipodi:end="5.5850536"
       sodipodi:arc-type="slice"
       d="M -21.776484,72.687998 A 15.398167,15.398167 0 0 1 -25.639618,57.383606 15.398167,15.398167 0 0 1 -14.002116,46.7198 15.398167,15.398167 0 0 1 0.90734376,51.9021 L -10.888336,61.79985 Z"
       transform="matrix(0.70710938,-0.70710419,0.70710938,0.70710419,0,0)" />
    <path
       style="fill:#05285b"
       id="path3322"
       sodipodi:type="arc"
       sodipodi:cx="-10.888336"
       sodipodi:cy="40.02354"
       sodipodi:rx="15.408"
       sodipodi:ry="15.398167"
       sodipodi:start="3.9269908"
       sodipodi:end="0.87266463"
       sodipodi:arc-type="slice"
       d="M -21.783438,29.135393 A 15.408,15.398167 0 0 1 -6.4692721,25.272258 15.408,15.398167 0 0 1 4.2013441,36.909761 15.408,15.398167 0 0 1 -0.98426474,51.819221 L -10.888336,40.02354 Z"
       transform="matrix(0.70710938,-0.70710419,0.70710938,0.70710419,0,0)" />
    <path
       style="fill:#05285b"
       id="path3324"
       sodipodi:type="arc"
       sodipodi:cx="10.887961"
       sodipodi:cy="61.79985"
       sodipodi:rx="15.398167"
       sodipodi:ry="15.398167"
       sodipodi:start="0.78539816"
       sodipodi:end="4.0142573"
       sodipodi:arc-type="slice"
       d="M 21.776109,72.687998 A 15.398167,15.398167 0 0 1 6.4717173,76.551133 15.398167,15.398167 0 0 1 -4.1920888,64.91363 15.398167,15.398167 0 0 1 0.99021089,50.00417 L 10.887961,61.79985 Z"
       transform="matrix(0.70710938,-0.70710419,0.70710938,0.70710419,0,0)" />
  </g>
  <g
     inkscape:groupmode="layer"
     id="layer2"
     inkscape:label="Nucleus Front"
     style="display:inline">
    <path
       style="fill:#05285b"
       id="path3326"
       sodipodi:type="arc"
       sodipodi:cx="-10.888336"
       sodipodi:cy="40.02354"
       sodipodi:rx="15.398167"
       sodipodi:ry="15.398167"
       sodipodi:start="0.78539816"
       sodipodi:end="4.0142573"
       sodipodi:arc-type="slice"
       d="M -1.88084e-4,50.911689 A 15.398167,15.398167 0 0 1 -15.30458,54.774823 15.398167,15.398167 0 0 1 -25.968386,43.13732 15.398167,15.398167 0 0 1 -20.786087,28.22786 l 9.897751,11.79568 z"
       transform="matrix(0.70710938,-0.70710419,0.70710938,0.70710419,0,0)" />
    <path
       style="fill:#940000"
       id="path2894"
       sodipodi:type="arc"
       sodipodi:cx="-10.888336"
       sodipodi:cy="61.79985"
       sodipodi:rx="15.398167"
       sodipodi:ry="15.398167"
       sodipodi:start="5.4977871"
       sodipodi:end="2.443461"
       sodipodi:arc-type="slice"
       d="M -1.885977e-4,50.911702 A 15.398167,15.398167 0 0 1 3.862946,66.216094 15.398167,15.398167 0 0 1 -7.7745566,76.879901 15.398167,15.398167 0 0 1 -22.684017,71.697601 l 11.795681,-9.897751 z"
       transform="matrix(0.70710938,-0.70710419,0.70710938,0.70710419,0,0)" />
    <path
       style="fill:#05285b"
       id="path3320"
       sodipodi:type="arc"
       sodipodi:cx="10.887961"
       sodipodi:cy="61.79985"
       sodipodi:rx="15.398167"
       sodipodi:ry="15.398167"
       sodipodi:start="3.9269908"
       sodipodi:end="0.87266463"
       sodipodi:arc-type="slice"
       d="M -1.8685797e-4,50.911703 A 15.398167,15.398167 0 0 1 15.304205,47.048568 15.398167,15.398167 0 0 1 25.968011,58.686071 15.398167,15.398167 0 0 1 20.785712,73.595531 L 10.887961,61.79985 Z"
       transform="matrix(0.70710938,-0.70710419,0.70710938,0.70710419,0,0)" />
    <path
       style="fill:#940000"
       id="path3186"
       sodipodi:type="arc"
       sodipodi:cx="10.887961"
       sodipodi:cy="40.02354"
       sodipodi:rx="15.398167"
       sodipodi:ry="15.398167"
       sodipodi:start="2.3561945"
       sodipodi:end="5.5850536"
       sodipodi:arc-type="slice"
       d="M -1.867798e-4,50.911688 A 15.398167,15.398167 0 0 1 -3.8633208,35.607296 15.398167,15.398167 0 0 1 7.7741815,24.94349 15.398167,15.398167 0 0 1 22.683641,30.12579 l -11.79568,9.89775 z"
       transform="matrix(0.70710938,-0.70710419,0.70710938,0.70710419,0,0)" />
    <circle
       style="fill:#05285b;stroke-width:1.02076"
       id="path6937"
       cx="-10.888336"
       cy="40.02354"
       r="6.3781304"
       transform="matrix(0.70710938,-0.70710419,0.70710938,0.70710419,0,0)" />
    <circle
       style="fill:#05285b;stroke-width:1.02076"
       id="path7387"
       cx="10.887961"
       cy="61.79985"
       r="6.3781304"
       transform="matrix(0.70710938,-0.70710419,0.70710938,0.70710419,0,0)" />
    <circle
       style="fill:#940000;stroke-width:1.36102"
       id="path8237"
       cx="10.887961"
       cy="40.02354"
       r="6.3781304"
       transform="matrix(0.70710938,-0.70710419,0.70710938,0.70710419,0,0)" />
    <circle
       style="fill:#940000;stroke-width:1.02076"
       id="path8239"
       cx="-10.888336"
       cy="61.79985"
       r="6.3781304"
       transform="matrix(0.70710938,-0.70710419,0.70710938,0.70710419,0,0)" />
    <text
       xml:space="preserve"
       style="font-style:normal;font-weight:normal;font-size:30px;line-height:1.25;font-family:sans-serif;fill:#000000;fill-opacity:1;stroke:none;stroke-width:0.75"
       x="7.21875"
       y="62.34375"
       id="text9599"><tspan
         sodipodi:role="line"
         id="tspan9597"
         style="stroke-width:0.75" /></text>
  </g>
  <g
     inkscape:groupmode="layer"
     id="layer4"
     inkscape:label="Halo A Front"
     style="display:inline">
    <path
       id="path3774"
       style="fill:#bc8000;stroke-width:1.36101"
       d="M 1.3539997,70.645752 A 10.88815,48.996672 45.000232 0 0 25.345119,59.990944 10.88815,48.996672 45.000232 0 0 59.991125,25.345191 10.88815,48.996672 45.000232 0 0 70.646013,1.3542473 L 53.32301,18.677123 A 4.5100182,24.498336 45.000225 0 1 47.423208,30.100242 4.5100182,24.498336 45.000225 0 1 30.100205,47.423117 4.5100182,24.498336 45.000225 0 1 18.677004,53.322876 Z" />
  </g>
  <g
     inkscape:groupmode="layer"
     id="layer5"
     inkscape:label="Text">
    <text
       xml:space="preserve"
       style="font-size:30px;line-height:1.25;font-family:Consolas;-inkscape-font-specification:Consolas;stroke-width:0.75"
       x="4.7066793"
       y="10.009979"
       id="text20225"><tspan
         sodipodi:role="line"
         id="tspan20223"
         style="stroke-width:0.75" /></text>
  </g>
</svg>
