<?xml version="1.0" encoding="UTF-8" standalone="no"?>
<!-- Created with Inkscape (http://www.inkscape.org/) -->

<svg
   width="96"
   height="96"
   viewBox="0 0 72 72"
   version="1.1"
   id="svg5"
   inkscape:version="1.1.1 (3bf5ae0d25, 2021-09-20)"
   sodipodi:docname="1-3.svg"
   inkscape:export-filename="C:\Users\Rev\Desktop\logo.png"
   inkscape:export-xdpi="600"
   inkscape:export-ydpi="600"
   xmlns:inkscape="http://www.inkscape.org/namespaces/inkscape"
   xmlns:sodipodi="http://sodipodi.sourceforge.net/DTD/sodipodi-0.dtd"
   xmlns="http://www.w3.org/2000/svg"
   xmlns:svg="http://www.w3.org/2000/svg">
  <sodipodi:namedview
     id="namedview7"
     pagecolor="#ffffff"
     bordercolor="#111111"
     borderopacity="1"
     inkscape:pageshadow="0"
     inkscape:pageopacity="0"
     inkscape:pagecheckerboard="1"
     inkscape:document-units="px"
     showgrid="false"
     units="px"
     scale-x="25.4"
     showguides="true"
     inkscape:guide-bbox="true"
     inkscape:lockguides="false"
     inkscape:zoom="5.6568543"
     inkscape:cx="54.358834"
     inkscape:cy="49.76264"
     inkscape:window-width="1920"
     inkscape:window-height="1017"
     inkscape:window-x="1912"
     inkscape:window-y="32"
     inkscape:window-maximized="1"
     inkscape:current-layer="layer6">
    <sodipodi:guide
       position="36,36"
       orientation="0,1"
       id="guide600"
       inkscape:label=""
       inkscape:locked="false"
       inkscape:color="rgb(0,0,255)" />
    <sodipodi:guide
       position="36,36"
       orientation="-1,0"
       id="guide682"
       inkscape:locked="false"
       inkscape:label=""
       inkscape:color="rgb(0,0,255)" />
    <sodipodi:guide
       position="28,36"
       orientation="-1,0"
       id="guide1035"
       inkscape:label=""
       inkscape:locked="false"
       inkscape:color="rgb(0,0,255)" />
    <sodipodi:guide
       position="44,36"
       orientation="-1,0"
       id="guide1037"
       inkscape:label=""
       inkscape:locked="false"
       inkscape:color="rgb(0,0,255)" />
    <sodipodi:guide
       position="36,44"
       orientation="0,1"
       id="guide1173"
       inkscape:label=""
       inkscape:locked="false"
       inkscape:color="rgb(0,0,255)" />
    <sodipodi:guide
       position="36,28"
       orientation="0,1"
       id="guide1175"
       inkscape:label=""
       inkscape:locked="false"
       inkscape:color="rgb(0,0,255)" />
    <sodipodi:guide
       position="0,36"
       orientation="-1,0"
       id="guide1521"
       inkscape:label=""
       inkscape:locked="false"
       inkscape:color="rgb(0,0,255)" />
    <sodipodi:guide
       position="72,36"
       orientation="-1,0"
       id="guide1541"
       inkscape:label=""
       inkscape:locked="false"
       inkscape:color="rgb(0,0,255)" />
    <sodipodi:guide
       position="36,72"
       orientation="0,1"
       id="guide1543"
       inkscape:label=""
       inkscape:locked="false"
       inkscape:color="rgb(0,0,255)" />
    <sodipodi:guide
       position="36,0"
       orientation="0,1"
       id="guide1617"
       inkscape:label=""
       inkscape:locked="false"
       inkscape:color="rgb(0,0,255)" />
    <sodipodi:guide
       position="39.313708,36"
       orientation="-1,0"
       id="guide2392"
       inkscape:label=""
       inkscape:locked="true"
       inkscape:color="rgb(0,0,255)" />
    <sodipodi:guide
       position="36,32.686292"
       orientation="0,1"
       id="guide2394"
       inkscape:label=""
       inkscape:locked="true"
       inkscape:color="rgb(0,0,255)" />
    <sodipodi:guide
       position="36,39.313708"
       orientation="0,1"
       id="guide2396"
       inkscape:label=""
       inkscape:locked="true"
       inkscape:color="rgb(0,0,255)" />
    <sodipodi:guide
       position="32.686292,36"
       orientation="-1,0"
       id="guide2826"
       inkscape:label=""
       inkscape:locked="true"
       inkscape:color="rgb(0,0,255)" />
    <sodipodi:guide
       position="54,36"
       orientation="-1,0"
       id="guide4688"
       inkscape:label=""
       inkscape:locked="false"
       inkscape:color="rgb(0,0,255)" />
    <sodipodi:guide
       position="18,36"
       orientation="-1,0"
       id="guide4708"
       inkscape:label=""
       inkscape:locked="false"
       inkscape:color="rgb(0,0,255)" />
  </sodipodi:namedview>
  <defs
     id="defs2" />
  <g
     inkscape:groupmode="layer"
     id="layer8"
     inkscape:label="Nucleus"
     style="display:inline">
    <path
       id="path8152"
       style="fill:#940000;fill-opacity:1;stroke-width:213.577;stroke-miterlimit:1.33333"
       d="M 48 8 A 20 20 0 0 0 28 28 A 20 20 0 0 0 48 48 A 20 20 0 0 1 68 28 A 20 20 0 0 0 48 8 z "
       transform="scale(0.75)" />
    <path
       id="path8152-4"
       style="display:inline;fill:#05285b;fill-opacity:1;stroke-width:213.577;stroke-miterlimit:1.33333"
       d="M 28 28 A 20 20 0 0 0 8 48 A 20 20 0 0 0 28 68 A 20 20 0 0 0 48 48 A 20 20 0 0 1 28 28 z "
       transform="scale(0.75)" />
    <circle
       style="fill:#05285b;fill-opacity:1;stroke-width:160.183;stroke-miterlimit:1.33333"
       id="path17029"
       cx="51"
       cy="36"
       r="15" />
    <path
       id="path17223"
       style="fill:#940000;fill-opacity:1;stroke-width:213.577;stroke-miterlimit:1.33333"
       d="M 48 48 A 20 20 0 0 1 28 68 A 20 20 0 0 0 48 88 A 20 20 0 0 0 68 68 A 20 20 0 0 0 48 48 z "
       transform="scale(0.75)" />
    <path
       id="path879"
       style="fill:#940000;fill-opacity:1;stroke-width:213.577;stroke-miterlimit:1.33333"
       d="M 48 8 A 20 20 0 0 0 28 28 A 20 20 0 0 0 48 48 A 20 20 0 0 1 68 28 A 20 20 0 0 0 48 8 z "
       transform="scale(0.75)" />
    <path
       id="path899"
       style="display:inline;fill:#05285b;fill-opacity:1;stroke-width:213.577;stroke-miterlimit:1.33333"
       d="M 28 28 A 20 20 0 0 0 8 48 A 20 20 0 0 0 28 68 A 20 20 0 0 0 48 48 A 20 20 0 0 1 28 28 z "
       transform="scale(0.75)" />
    <circle
       style="fill:#05285b;fill-opacity:1;stroke-width:160.183;stroke-miterlimit:1.33333"
       id="circle977"
       cx="51"
       cy="36"
       r="15" />
    <path
       id="path979"
       style="fill:#940000;fill-opacity:1;stroke-width:213.577;stroke-miterlimit:1.33333"
       d="M 48 48 A 20 20 0 0 1 28 68 A 20 20 0 0 0 48 88 A 20 20 0 0 0 68 68 A 20 20 0 0 0 48 48 z "
       transform="scale(0.75)" />
  </g>
  <g
     inkscape:groupmode="layer"
     id="layer6"
     inkscape:label="Halo"
     style="display:inline">
    <path
       id="path2018"
       style="display:inline;fill:#bc8000;fill-opacity:1;stroke-width:284.769;stroke-miterlimit:1.33333"
       d="M 83.375,3.2832031 A 20,60 45 0 0 60.40625,12.316406 20,20 0 0 1 67.896484,26.001953 10,30 45 0 1 69.212891,26.787109 10,30 45 0 1 55.070312,55.070312 10,30 45 0 1 26.787109,69.212891 10,30 45 0 1 26.007812,67.878906 20,20 0 0 1 12.361328,60.408203 20,60 45 0 0 5.5742188,90.425781 20,60 45 0 0 62.142578,62.142578 20,60 45 0 0 90.425781,5.5742188 20,60 45 0 0 83.375,3.2832031 Z"
       transform="scale(0.75)" />
    <path
       id="path981"
       style="display:inline;fill:#bc8000;fill-opacity:1;stroke-width:284.769;stroke-miterlimit:1.33333"
       d="M 83.375,3.2832031 A 20,60 45 0 0 60.40625,12.316406 20,20 0 0 1 67.896484,26.001953 10,30 45 0 1 69.212891,26.787109 10,30 45 0 1 55.070312,55.070312 10,30 45 0 1 26.787109,69.212891 10,30 45 0 1 26.007812,67.878906 20,20 0 0 1 12.361328,60.408203 20,60 45 0 0 5.5742188,90.425781 20,60 45 0 0 62.142578,62.142578 20,60 45 0 0 90.425781,5.5742188 20,60 45 0 0 83.375,3.2832031 Z"
       transform="scale(0.75)" />
  </g>
</svg>
